<?xml version="1.0" encoding="iso-8859-1"?>
<!-- Uploaded to: SVG Repo, www.svgrepo.com, Generator: SVG Repo Mixer Tools -->
<!DOCTYPE svg PUBLIC "-//W3C//DTD SVG 1.1//EN" "http://www.w3.org/Graphics/SVG/1.1/DTD/svg11.dtd">
<svg fill="#000000" height="800px" width="800px" version="1.1" id="Capa_1" xmlns="http://www.w3.org/2000/svg" xmlns:xlink="http://www.w3.org/1999/xlink" 
	 viewBox="0 0 460 460" xml:space="preserve">
<g id="XMLID_520_">
	<circle id="XMLID_904_" cx="136.16" cy="46.037" r="44.838"/>
	<path id="XMLID_910_" d="M240.731,305.545c-1.264-9.895-8.429-18.02-18.087-20.514l-52.085-13.447l1.163-16.39
		c-8.885-1.694-16.37-7.756-19.897-16.015l-31.752-74.673l48.394,61.597c4.192,5.335,10.779,8.239,17.586,7.701l41.863-3.331
		c-0.288,0.993-0.45,2.039-0.45,3.125c0,6.191,5.019,11.21,11.21,11.21c10.431,0,88.443,0,101.125,0
		c5.07,0,9.509-3.403,10.826-8.299l28.463-105.825c1.608-5.979-1.935-12.129-7.914-13.737c-5.979-1.606-12.129,1.934-13.737,7.914
		l-26.231,97.526c-10.763,0-41.988,0-52.497,0c4.662-4.086,7.417-10.228,6.888-16.882c-0.89-11.184-10.663-19.538-21.862-18.64
		l-70.048,5.573l-41.666-53.033l26.514,19.782l0.852-11.999c1.184-16.686-11.382-31.174-28.069-32.358l-51.411-3.649
		c-17.602-1.249-32.567,12.779-32.433,30.444l1.14,149.945c0.047,6.217,2.333,12.15,6.347,16.768H54.218l-21.842-172.47
		c-1.127-8.904-9.256-15.213-18.164-14.081c-8.904,1.128-15.209,9.26-14.081,18.164l23.641,186.68
		c1.029,8.121,7.937,14.21,16.123,14.21h58.689v66.553l-38.605,31.514c-4.796,3.915-5.511,10.977-1.595,15.773
		c3.915,4.797,10.978,5.51,15.773,1.595l24.426-19.94v11.256c0,6.191,5.019,11.21,11.21,11.21c6.191,0,11.21-5.019,11.21-11.21
		v-11.256l24.426,19.94c2.082,1.699,4.59,2.527,7.083,2.527c3.25-0.001,6.475-1.407,8.691-4.122
		c3.915-4.796,3.201-11.858-1.595-15.773l-38.605-31.514v-66.553h53.516c8.119,0,14.829-5.961,16.038-13.741l3.905,1.008
		l13.979,109.404c1.707,13.365,13.927,22.798,27.27,21.091c13.355-1.706,22.797-13.916,21.091-27.27L240.731,305.545z"/>
	<path id="XMLID_911_" d="M443.748,259.363H259.15c-8.975,0-16.252,7.276-16.252,16.252s7.276,16.252,16.252,16.252h168.346v134.433
		h-76.485c-8.975,0-16.252,7.276-16.252,16.252s7.276,16.252,16.252,16.252h92.737c8.975,0,16.252-7.276,16.252-16.252V275.614
		C460,266.639,452.724,259.363,443.748,259.363z"/>
</g>
</svg>