<!DOCTYPE svg PUBLIC "-//W3C//DTD SVG 1.1//EN" "http://www.w3.org/Graphics/SVG/1.1/DTD/svg11.dtd">
<!-- Uploaded to: SVG Repo, www.svgrepo.com, Transformed by: SVG Repo Mixer Tools -->
<svg version="1.1" id="Layer_1" xmlns="http://www.w3.org/2000/svg" xmlns:xlink="http://www.w3.org/1999/xlink" viewBox="0 0 502 502" xml:space="preserve" width="800px" height="800px" fill="#000000">
<g id="SVGRepo_bgCarrier" stroke-width="0"/>
<g id="SVGRepo_tracerCarrier" stroke-linecap="round" stroke-linejoin="round"/>
<g id="SVGRepo_iconCarrier"> <g> <path style="fill:#1DB954;" d="M251,10C117.899,10,10,117.899,10,251s107.899,241,241,241s241-107.899,241-241S384.101,10,251,10z M251,320.55c-38.412,0-69.55-31.139-69.55-69.55s31.139-69.55,69.55-69.55s69.55,31.139,69.55,69.55S289.412,320.55,251,320.55z"/> <path d="M251,502c-67.045,0-130.076-26.108-177.483-73.516C26.108,381.076,0,318.044,0,251S26.108,120.924,73.517,73.516 C120.924,26.108,183.955,0,251,0s130.076,26.108,177.483,73.516C475.892,120.924,502,183.956,502,251 s-26.108,130.076-73.517,177.484C381.076,475.892,318.045,502,251,502z M251,20C123.626,20,20,123.626,20,251s103.626,231,231,231 s231-103.626,231-231S378.374,20,251,20z M251,330.55c-43.864,0-79.551-35.686-79.551-79.55s35.687-79.55,79.551-79.55 s79.551,35.686,79.551,79.55S294.864,330.55,251,330.55z M251,191.45c-32.836,0-59.551,26.714-59.551,59.55 s26.715,59.55,59.551,59.55s59.551-26.714,59.551-59.55S283.836,191.45,251,191.45z"/> <path style="fill:#3B7BC0;" d="M251,181.45c-38.412,0-69.55,31.139-69.55,69.55s31.139,69.55,69.55,69.55s69.55-31.139,69.55-69.55 S289.412,181.45,251,181.45z M251,268.55c-9.693,0-17.55-7.858-17.55-17.55s7.857-17.55,17.55-17.55 c9.693,0,17.55,7.858,17.55,17.55S260.693,268.55,251,268.55z"/> <path d="M251,330.55c-43.864,0-79.551-35.686-79.551-79.55s35.687-79.55,79.551-79.55s79.551,35.686,79.551,79.55 S294.864,330.55,251,330.55z M251,191.45c-32.836,0-59.551,26.714-59.551,59.55s26.715,59.55,59.551,59.55 s59.551-26.714,59.551-59.55S283.836,191.45,251,191.45z M251,278.55c-15.191,0-27.551-12.359-27.551-27.55 s12.359-27.55,27.551-27.55c15.192,0,27.551,12.359,27.551,27.55C278.551,266.191,266.191,278.55,251,278.55z M251,243.45 c-4.163,0-7.551,3.387-7.551,7.55s3.388,7.55,7.551,7.55s7.551-3.387,7.551-7.55S255.163,243.45,251,243.45z"/> <path d="M411.121,46.716c-8.301,0.159-12.886-11.009-7.064-16.83l6.47-6.47c1.876-1.875,4.419-2.929,7.071-2.929h45.288 c5.522,0,10,4.477,10,10s-4.478,10-10,10c0,0-41.049,0-41.145,0c-0.682,0-2.856,2.857-3.464,3.379 C416.289,45.573,413.719,46.667,411.121,46.716z"/> <rect x="282.81" y="107.047" style="fill:#FFB86C;" width="58.228" height="43.132"/> <path d="M375.066,73.018c-3.906-3.905-10.236-3.905-14.143,0l-24.028,24.029H282.81c-5.522,0-10,4.477-10,10v43.132 c0,5.523,4.478,10,10,10h58.229c5.522,0,10-4.477,10-10v-38.99l24.028-24.029C378.972,83.255,378.972,76.923,375.066,73.018z M331.038,140.179H292.81v-23.132h38.229v23.132H331.038z"/> <path d="M251,461.024c-31.494,0-61.781-6.803-90.021-20.219c-4.988-2.37-7.111-8.335-4.741-13.324 c2.369-4.989,8.336-7.111,13.323-4.742c25.537,12.132,52.938,18.284,81.439,18.284c5.522,0,10,4.477,10,10 S256.522,461.024,251,461.024z"/> <path d="M96.218,387.7c-2.894,0-5.764-1.25-7.74-3.662C57.846,346.66,40.976,299.413,40.976,251 c0-115.808,94.217-210.024,210.024-210.024c5.522,0,10,4.477,10,10s-4.478,10-10,10C146.22,60.976,60.976,146.22,60.976,251 c0,43.803,15.261,86.548,42.971,120.361c3.501,4.271,2.876,10.572-1.396,14.073C100.691,386.958,98.447,387.7,96.218,387.7z"/> </g> </g>
</svg>